<svg width="15" height="9" viewBox="0 0 15 9" fill="none" xmlns="http://www.w3.org/2000/svg">
<path d="M7.5 8.9059C7.32063 8.9059 7.14708 8.87226 6.97937 8.805C6.81076 8.73773 6.6704 8.64805 6.5583 8.53594L0.369955 2.3476C0.123318 2.10096 0 1.78706 0 1.4059C0 1.02473 0.123318 0.71083 0.369955 0.464193C0.616591 0.217556 0.930493 0.0942383 1.31166 0.0942383C1.69282 0.0942383 2.00673 0.217556 2.25336 0.464193L7.5 5.71083L12.7466 0.464193C12.9933 0.217556 13.3072 0.0942383 13.6883 0.0942383C14.0695 0.0942383 14.3834 0.217556 14.63 0.464193C14.8767 0.71083 15 1.02473 15 1.4059C15 1.78706 14.8767 2.10096 14.63 2.3476L8.4417 8.53594C8.30717 8.67047 8.16143 8.76554 8.00448 8.82114C7.84753 8.87765 7.67937 8.9059 7.5 8.9059Z" fill="#1E1E1E"/>
</svg>
