<svg width="6" height="11" viewBox="0 0 6 11" fill="none" xmlns="http://www.w3.org/2000/svg">
<path d="M6 5.5C6 5.61958 5.9771 5.73528 5.9313 5.84709C5.8855 5.95949 5.82443 6.05306 5.74809 6.1278L1.53435 10.2534C1.36641 10.4178 1.15267 10.5 0.893129 10.5C0.633587 10.5 0.419847 10.4178 0.251908 10.2534C0.0839691 10.0889 -2.71154e-08 9.87967 -3.8223e-08 9.62556C-4.93305e-08 9.37145 0.0839691 9.16218 0.251908 8.99776L3.82443 5.5L0.251908 2.00224C0.0839687 1.83782 -3.87783e-07 1.62855 -3.98891e-07 1.37444C-4.09998e-07 1.12033 0.0839687 0.911062 0.251908 0.746638C0.419847 0.582213 0.633587 0.5 0.893129 0.5C1.15267 0.5 1.36641 0.582213 1.53435 0.746638L5.74809 4.8722C5.83969 4.96188 5.90443 5.05904 5.94229 5.16368C5.98076 5.26831 6 5.38042 6 5.5Z" fill="#1E1E1E"/>
</svg>
