<svg width="30" height="21" viewBox="0 0 30 21" fill="none" xmlns="http://www.w3.org/2000/svg">
<path d="M1.66667 20.5C1.19444 20.5 0.798889 20.34 0.48 20.02C0.16 19.7011 0 19.3056 0 18.8333C0 18.3611 0.16 17.9656 0.48 17.6467C0.798889 17.3267 1.19444 17.1667 1.66667 17.1667H28.3333C28.8056 17.1667 29.2011 17.3267 29.52 17.6467C29.84 17.9656 30 18.3611 30 18.8333C30 19.3056 29.84 19.7011 29.52 20.02C29.2011 20.34 28.8056 20.5 28.3333 20.5H1.66667ZM1.66667 12.1667C1.19444 12.1667 0.798889 12.0067 0.48 11.6867C0.16 11.3678 0 10.9722 0 10.5C0 10.0278 0.16 9.63167 0.48 9.31167C0.798889 8.99278 1.19444 8.83333 1.66667 8.83333H28.3333C28.8056 8.83333 29.2011 8.99278 29.52 9.31167C29.84 9.63167 30 10.0278 30 10.5C30 10.9722 29.84 11.3678 29.52 11.6867C29.2011 12.0067 28.8056 12.1667 28.3333 12.1667H1.66667ZM1.66667 3.83333C1.19444 3.83333 0.798889 3.67389 0.48 3.355C0.16 3.035 0 2.63889 0 2.16667C0 1.69444 0.16 1.29833 0.48 0.978334C0.798889 0.659445 1.19444 0.5 1.66667 0.5H28.3333C28.8056 0.5 29.2011 0.659445 29.52 0.978334C29.84 1.29833 30 1.69444 30 2.16667C30 2.63889 29.84 3.035 29.52 3.355C29.2011 3.67389 28.8056 3.83333 28.3333 3.83333H1.66667Z" fill="#1E1E1E"/>
</svg>
