<svg width="30" height="14" viewBox="0 0 30 14" fill="none" xmlns="http://www.w3.org/2000/svg">
<path d="M-2.75267e-07 7.1714C-2.65072e-07 6.93816 0.0367372 6.7195 0.110206 6.51542C0.182508 6.31134 0.306124 6.12184 0.48105 5.94691L5.07289 1.35507C5.39359 1.03437 5.78717 0.874022 6.25365 0.874022C6.72012 0.874022 7.12828 1.04895 7.47814 1.3988C7.79884 1.7195 7.95919 2.12767 7.95919 2.62329C7.95919 3.11892 7.79884 3.52708 7.47814 3.84778L5.90379 5.42213L24.0962 5.42213L22.4781 3.80405C22.1574 3.48335 21.9971 3.08977 21.9971 2.62329C21.9971 2.15682 22.172 1.74866 22.5219 1.3988C22.8426 1.07811 23.2507 0.917756 23.7464 0.917756C24.242 0.917756 24.6501 1.07811 24.9708 1.3988L29.519 5.94691C29.6939 6.12184 29.8181 6.31134 29.8915 6.51542C29.9638 6.7195 30 6.93816 30 7.1714C30 7.40464 29.9638 7.62329 29.8915 7.82738C29.8181 8.03146 29.6939 8.22096 29.5189 8.39589L24.9271 12.9877C24.6064 13.3084 24.2128 13.4688 23.7464 13.4688C23.2799 13.4688 22.8717 13.2938 22.5219 12.944C22.2012 12.6233 22.0408 12.2151 22.0408 11.7195C22.0408 11.2239 22.2012 10.8157 22.5219 10.495L24.0962 8.92067L5.90379 8.92067L7.52187 10.5387C7.84257 10.8594 8.00292 11.253 8.00292 11.7195C8.00292 12.186 7.82799 12.5941 7.47814 12.944C7.15744 13.2647 6.74927 13.425 6.25365 13.425C5.75802 13.425 5.34985 13.2647 5.02916 12.944L0.48105 8.39589C0.306123 8.22096 0.182508 8.03146 0.110206 7.82737C0.0367371 7.62329 -2.85462e-07 7.40463 -2.75267e-07 7.1714Z" fill="#32700C"/>
</svg>
