<svg width="13" height="31" viewBox="0 0 13 31" fill="none" xmlns="http://www.w3.org/2000/svg">
<path d="M6.29738 30.1714C6.06414 30.1714 5.84548 30.1346 5.6414 30.0612C5.43732 29.9889 5.24781 29.8653 5.07289 29.6903L0.48105 25.0985C0.160351 24.7778 0 24.3842 0 23.9177C0 23.4513 0.174927 23.0431 0.524782 22.6932C0.845481 22.3725 1.25364 22.2122 1.74927 22.2122C2.2449 22.2122 2.65306 22.3725 2.97376 22.6932L4.54811 24.2676V6.07518L2.93003 7.69325C2.60933 8.01395 2.21574 8.1743 1.74927 8.1743C1.2828 8.1743 0.874636 7.99937 0.524782 7.64952C0.204082 7.32882 0.0437328 6.92066 0.0437328 6.42503C0.0437328 5.9294 0.204082 5.52124 0.524782 5.20054L5.07289 0.652436C5.24781 0.477509 5.43732 0.353311 5.6414 0.279842C5.84548 0.207538 6.06414 0.171387 6.29738 0.171387C6.53061 0.171387 6.74927 0.207538 6.95335 0.279842C7.15743 0.353311 7.34694 0.477509 7.52187 0.652436L12.1137 5.24427C12.4344 5.56497 12.5948 5.95856 12.5948 6.42503C12.5948 6.8915 12.4198 7.29967 12.07 7.64952C11.7493 7.97022 11.3411 8.13057 10.8455 8.13057C10.3499 8.13057 9.94169 7.97022 9.62099 7.64952L8.04665 6.07518V24.2676L9.66472 22.6495C9.98542 22.3288 10.379 22.1685 10.8455 22.1685C11.312 22.1685 11.7201 22.3434 12.07 22.6932C12.3907 23.0139 12.551 23.4221 12.551 23.9177C12.551 24.4134 12.3907 24.8215 12.07 25.1422L7.52187 29.6903C7.34694 29.8653 7.15743 29.9889 6.95335 30.0612C6.74927 30.1346 6.53061 30.1714 6.29738 30.1714Z" fill="#32700C"/>
</svg>
