<svg width="30" height="31" viewBox="0 0 30 31" fill="none" xmlns="http://www.w3.org/2000/svg">
<path d="M10.5943 26.4C8.21714 25.3028 6.27977 23.6457 4.78217 21.4285C3.28549 19.2114 2.53714 16.7085 2.53714 13.92C2.53714 13.3257 2.57143 12.7428 2.64 12.1714C2.70857 11.6 2.81143 11.04 2.94857 10.4914L1.37143 11.4171L0 9.05139L6.54857 5.27996L10.32 11.7942L7.92 13.1657L6.06857 9.94282C5.81714 10.56 5.6288 11.2 5.50354 11.8628C5.37737 12.5257 5.31429 13.2114 5.31429 13.92C5.31429 16.1371 5.92 18.1545 7.13143 19.9721C8.34286 21.7888 9.95429 23.1314 11.9657 24L10.5943 26.4ZM21.0857 9.77139V7.02853H24.8229C23.7714 5.72567 22.5029 4.71402 21.0171 3.99356C19.5314 3.27402 17.9543 2.91424 16.2857 2.91424C15.0286 2.91424 13.84 3.10853 12.72 3.4971C11.6 3.88567 10.5714 4.43424 9.63429 5.14282L8.26286 2.74282C9.40571 1.94282 10.6459 1.31424 11.9835 0.857101C13.3202 0.399958 14.7429 0.171387 16.2514 0.171387C18.0571 0.171387 19.7883 0.508301 21.445 1.18213C23.1026 1.85687 24.5829 2.83424 25.8857 4.11424V2.22853H28.6286V9.77139H21.0857ZM20.1943 30.3428L13.6457 26.5714L17.4171 20.0571L19.7829 21.4285L17.8286 24.7885C20.5257 24.4 22.7717 23.1826 24.5664 21.1364C26.3602 19.0912 27.2571 16.6857 27.2571 13.92C27.2571 13.6685 27.2517 13.4285 27.2407 13.2C27.2288 12.9714 27.2 12.7428 27.1543 12.5142H29.9314C29.9543 12.7428 29.9717 12.9659 29.9835 13.1835C29.9945 13.4002 30 13.6342 30 13.8857C30 16.9714 29.0802 19.7316 27.2407 22.1664C25.4002 24.6002 23.0057 26.24 20.0571 27.0857L21.5657 27.9771L20.1943 30.3428Z" fill="#32700C"/>
</svg>
