<svg width="20" height="20" viewBox="0 0 20 20" fill="none" xmlns="http://www.w3.org/2000/svg">
<path d="M5.31901 19.7086C4.83407 20.0864 4.33859 20.0968 3.83258 19.74C3.32656 19.3832 3.15789 18.911 3.32656 18.3233L5.12925 12.4989L0.543457 9.25609C0.0374381 8.89928 -0.115211 8.42703 0.0855099 7.83934C0.285387 7.25166 0.691045 6.95781 1.30248 6.95781H6.96357L8.79788 0.913016C8.9033 0.619172 9.06691 0.393332 9.28872 0.235496C9.50968 0.0784987 9.74667 0 9.99968 0C10.2527 0 10.4897 0.0784987 10.7106 0.235496C10.9324 0.393332 11.096 0.619172 11.2015 0.913016L13.0358 6.95781H18.6969C19.3083 6.95781 19.7144 7.25166 19.9151 7.83934C20.115 8.42703 19.9619 8.89928 19.4559 9.25609L14.8701 12.4989L16.6728 18.3233C16.8415 18.911 16.6728 19.3832 16.1668 19.74C15.6608 20.0968 15.1653 20.0864 14.6803 19.7086L9.99968 16.1509L5.31901 19.7086Z" fill="#32700C"/>
</svg>
